<svg id="SvgjsSvg1008" xmlns="http://www.w3.org/2000/svg" version="1.1" xmlns:xlink="http://www.w3.org/1999/xlink" xmlns:svgjs="http://svgjs.com/svgjs" width="74" height="62" viewBox="0 0 74 62"><title>Shape 9 copy</title><desc>Created with Avocode.</desc><defs id="SvgjsDefs1009"></defs><path id="SvgjsPath1010" d="M1318.99 1469.45C1319.6 1470.05 1320.66 1470.05 1321.27 1469.45L1333.92 1456.82C1334.5500000000002 1456.1899999999998 1334.5500000000002 1455.1699999999998 1333.92 1454.55C1333.3100000000002 1453.94 1332.25 1453.94 1331.64 1454.55L1325.8000000000002 1460.3799999999999C1325.2400000000002 1460.9299999999998 1324.42 1461.12 1323.6900000000003 1460.85C1322.9500000000003 1460.59 1322.4400000000003 1459.9199999999998 1322.3700000000003 1459.1499999999999C1320.9200000000003 1443.6999999999998 1307.6100000000004 1431.6 1292.0600000000004 1431.6C1275.2600000000004 1431.6 1261.6000000000004 1445.24 1261.6000000000004 1462C1261.6000000000004 1478.76 1275.2600000000004 1492.39 1292.0600000000004 1492.39C1298.2500000000005 1492.39 1304.2000000000005 1490.5500000000002 1309.2800000000004 1487.0600000000002C1309.6400000000003 1486.8200000000002 1309.8800000000003 1486.4500000000003 1309.9600000000005 1486.0300000000002C1310.0300000000004 1485.6100000000001 1309.9400000000005 1485.1800000000003 1309.7000000000005 1484.8300000000002C1309.2100000000005 1484.13 1308.1700000000005 1483.93 1307.4600000000005 1484.42C1302.9200000000005 1487.53 1297.5900000000006 1489.18 1292.0600000000004 1489.18C1277.0400000000004 1489.18 1264.8200000000004 1476.98 1264.8200000000004 1462C1264.8200000000004 1447.01 1277.0400000000004 1434.82 1292.0600000000004 1434.82C1306.3200000000004 1434.82 1318.2500000000005 1445.9399999999998 1319.2100000000005 1460.1399999999999C1319.2700000000004 1460.9699999999998 1318.8000000000004 1461.7599999999998 1318.0400000000004 1462.1C1317.2800000000004 1462.4499999999998 1316.3800000000003 1462.29 1315.7800000000004 1461.6899999999998L1308.6300000000003 1454.5499999999997C1308.0200000000004 1453.9399999999998 1306.9600000000003 1453.9399999999998 1306.3500000000004 1454.5499999999997C1305.7200000000003 1455.1699999999996 1305.7200000000003 1456.1899999999998 1306.3500000000004 1456.8199999999997Z " fill="#ababab" fill-opacity="1" transform="matrix(1,0,0,1,-1261,-1431)"></path></svg>