<svg id="SvgjsSvg1011" xmlns="http://www.w3.org/2000/svg" version="1.1" xmlns:xlink="http://www.w3.org/1999/xlink" xmlns:svgjs="http://svgjs.com/svgjs" width="54" height="49" viewBox="0 0 54 49"><title>Shape 10</title><desc>Created with Avocode.</desc><defs id="SvgjsDefs1012"></defs><path id="SvgjsPath1013" d="M1128 1447.14C1128 1450.3700000000001 1125.37 1452.99 1122.13 1452.99L1079.8700000000001 1452.99C1076.63 1452.99 1074.0000000000002 1450.3700000000001 1074.0000000000002 1447.14L1074.0000000000002 1413.18C1074.0000000000002 1410.6000000000001 1076.1000000000001 1408.5 1078.7000000000003 1408.5L1102.3700000000003 1408.5L1111.8800000000003 1405.06C1112.4800000000002 1404.84 1113.1500000000003 1405.1499999999999 1113.3700000000003 1405.75L1114.3700000000003 1408.5L1118.6100000000004 1408.5C1121.2000000000003 1408.5 1123.3000000000004 1410.6 1123.3000000000004 1413.18L1123.3000000000004 1415.52C1125.9000000000003 1415.52 1128.0000000000005 1417.62 1128.0000000000005 1420.21ZM1123.3 1417.86L1078.7 1417.86C1077.8400000000001 1417.86 1077.04 1417.62 1076.3500000000001 1417.2199999999998L1076.3500000000001 1447.1399999999999C1076.3500000000001 1449.08 1077.93 1450.6499999999999 1079.8700000000001 1450.6499999999999L1122.13 1450.6499999999999C1124.0800000000002 1450.6499999999999 1125.65 1449.08 1125.65 1447.1399999999999L1125.65 1438.9399999999998L1120.96 1438.9399999999998C1118.3600000000001 1438.9399999999998 1116.26 1436.84 1116.26 1434.2599999999998C1116.26 1431.6699999999998 1118.36 1429.5699999999997 1120.96 1429.5699999999997L1125.65 1429.5699999999997L1125.65 1420.2099999999998C1125.65 1418.9099999999999 1124.6000000000001 1417.86 1123.3000000000002 1417.86ZM1112.83 1411.05L1111.58 1407.6299999999999L1109.1799999999998 1408.4999999999998L1102.7099999999998 1410.8399999999997L1102.6899999999998 1410.8399999999997L1089.7399999999998 1415.5199999999998L1114.4599999999998 1415.5199999999998ZM1078.7 1410.84C1077.4 1410.84 1076.3500000000001 1411.8899999999999 1076.3500000000001 1413.1799999999998C1076.3500000000001 1414.4699999999998 1077.4 1415.5199999999998 1078.7 1415.5199999999998L1082.96 1415.5199999999998C1082.98 1415.5199999999998 1082.99 1415.4999999999998 1083 1415.4999999999998L1095.89 1410.8399999999997ZM1125.65 1436.6L1125.65 1431.9199999999998L1120.96 1431.9199999999998C1119.66 1431.9199999999998 1118.6100000000001 1432.9599999999998 1118.6100000000001 1434.2599999999998C1118.6100000000001 1435.5499999999997 1119.66 1436.5999999999997 1120.96 1436.5999999999997ZM1120.96 1413.18C1120.96 1411.89 1119.9 1410.8400000000001 1118.6100000000001 1410.8400000000001L1115.22 1410.8400000000001L1116.93 1415.5200000000002L1120.96 1415.5200000000002ZM1120.96 1435.43L1123.3 1435.43L1123.3 1433.0900000000001L1120.96 1433.0900000000001Z " fill="#ffffff" fill-opacity="1" transform="matrix(1,0,0,1,-1074,-1404)"></path></svg>